<svg width="184" height="63" viewBox="0 0 184 63" fill="none" xmlns="http://www.w3.org/2000/svg">
<path d="M0.278 34.538C0.278 31.962 1.198 29.938 3.038 28.466C4.97 26.994 7.73 25.568 11.318 24.188L37.676 11.768C42.736 9.468 45.22 8.318 45.128 8.318L49.544 6.11C51.568 5.006 53.27 4.178 54.65 3.626C56.122 3.074 57.686 2.798 59.342 2.798C61.09 2.798 62.424 3.442 63.344 4.73C64.264 6.018 64.724 7.536 64.724 9.284C64.724 11.124 64.218 12.504 63.206 13.424C62.286 14.344 61.044 15.218 59.48 16.046C58.008 16.874 56.858 17.518 56.03 17.978L36.158 26.396L17.942 33.986C22.818 35.826 27.74 37.528 32.708 39.092C37.676 40.564 43.702 42.312 50.786 44.336C56.03 45.808 59.48 46.82 61.136 47.372C62.884 47.924 64.172 48.89 65 50.27C65.828 51.558 66.242 52.892 66.242 54.272C66.242 56.112 65.598 57.722 64.31 59.102C63.114 60.482 61.688 61.172 60.032 61.172C58.744 61.172 56.858 60.62 54.374 59.516C51.798 58.596 50.05 57.998 49.13 57.722C42.23 55.698 32.892 52.34 21.116 47.648C19.184 46.912 17.252 46.222 15.32 45.578C13.48 44.842 11.87 44.244 10.49 43.784C7.73 42.864 5.338 41.576 3.314 39.92C1.29 38.264 0.278 36.47 0.278 34.538ZM105.159 4.862C106.108 4.862 106.88 5.129 107.473 5.663C108.066 6.13767 108.363 6.731 108.363 7.443C108.363 8.09566 108.215 8.68899 107.918 9.223C105.96 12.3083 104.269 15.186 102.845 17.856C101.421 20.526 99.641 23.997 97.505 28.269C96.6744 29.9303 95.3394 32.5707 93.5 36.19C92.61 37.9107 91.3344 40.729 89.673 44.645C87.2404 50.1037 85.2527 54.257 83.71 57.105C81.8707 60.665 79.7644 62.445 77.391 62.445C74.365 62.445 72.852 61.377 72.852 59.241C72.852 58.4103 73.119 57.639 73.653 56.927C76.857 52.2397 79.5864 47.7007 81.841 43.31C84.155 38.86 86.647 33.6683 89.317 27.735C92.343 20.971 94.8944 15.6903 96.971 11.893C97.9797 9.87567 99.0477 8.21433 100.175 6.909C101.362 5.54433 103.023 4.862 105.159 4.862ZM183.407 33.543C183.407 35.545 182.358 37.404 180.261 39.12C178.259 40.836 175.828 42.1707 172.968 43.124C172.301 43.3147 168.344 44.7447 161.099 47.414C148.229 52.3713 138.839 55.7557 132.928 57.567C130.831 58.139 128.972 58.8063 127.351 59.569C124.586 60.6177 122.632 61.142 121.488 61.142C119.867 61.142 118.39 60.427 117.055 58.997C115.72 57.4717 115.053 55.8033 115.053 53.992C115.053 52.562 115.482 51.1797 116.34 49.845C117.198 48.415 118.58 47.414 120.487 46.842C122.203 46.27 125.778 45.2213 131.212 43.696C138.553 41.5987 144.797 39.7873 149.945 38.262C155.093 36.6413 160.193 34.8777 165.246 32.971L146.37 25.106L125.778 16.383C124.92 15.9063 123.585 15.1913 121.774 14.238C119.963 13.2847 118.676 12.2837 117.913 11.235C117.15 10.1863 116.769 8.89933 116.769 7.374C116.769 5.56266 117.246 3.98966 118.199 2.655C119.152 1.32033 120.535 0.652997 122.346 0.652997C123.967 0.652997 125.444 0.938998 126.779 1.511C128.114 1.98767 130.068 2.84566 132.642 4.085C134.835 5.32433 136.265 6.087 136.932 6.373L172.11 22.818C175.828 24.248 178.64 25.7257 180.547 27.251C182.454 28.7763 183.407 30.8737 183.407 33.543Z" fill="#946441" fill-opacity="0.5"/>
</svg>
