<svg width="57" height="58" viewBox="0 0 57 58" fill="none" xmlns="http://www.w3.org/2000/svg">
<rect width="57" height="58" rx="20" fill="#58AB9C"/>
<path d="M16.16 15.32C17.0933 15.4 17.9067 15.6533 18.6 16.08C19.2933 16.48 19.64 17.0933 19.64 17.92C19.64 18.5333 19.3467 19.0267 18.76 19.4C18.2 19.7467 17.52 19.92 16.72 19.92C15.9467 19.92 15.4133 19.72 15.12 19.32C14.8267 18.92 14.68 18.5067 14.68 18.08C14.68 17.28 14.76 16.6133 14.92 16.08C15.1067 15.5467 15.52 15.2933 16.16 15.32ZM19.36 33.04V34.2C19.36 35.24 19.3867 36.2267 19.44 37.16C19.52 38.0667 19.6133 38.9867 19.72 39.92C19.6933 40.1867 19.4933 40.4667 19.12 40.76C18.7467 41.0267 18.4133 41.16 18.12 41.16C17.6133 41.16 17.0933 41.0667 16.56 40.88C16.0533 40.6667 15.7467 40.4133 15.64 40.12C15.48 39.2667 15.4 38.5067 15.4 37.84C15.4 35.6533 15.3333 33.2 15.2 30.48C15.0933 28.08 15.04 26.4 15.04 25.44C15.04 24.96 15.28 24.5467 15.76 24.2C16.24 23.8533 16.7467 23.68 17.28 23.68C18.0533 23.68 18.5867 23.8533 18.88 24.2C19.2 24.5467 19.36 25.0933 19.36 25.84V33.04ZM42.5944 37.92C42.7277 37.9733 42.941 38.04 43.2344 38.12C43.5277 38.2 43.741 38.28 43.8744 38.36C44.0077 38.44 44.0744 38.56 44.0744 38.72C44.101 39.36 43.861 39.8933 43.3544 40.32C42.8744 40.72 42.301 40.92 41.6344 40.92C40.5944 40.92 39.781 40.64 39.1944 40.08C38.6077 39.52 38.181 38.6667 37.9144 37.52C37.8077 37.0667 37.7544 36.44 37.7544 35.64C37.7544 35.1867 37.781 34.4533 37.8344 33.44C37.8877 32.3733 37.9144 31.52 37.9144 30.88C37.9144 29.9467 37.6477 29.1333 37.1144 28.44C36.6077 27.72 35.8877 27.36 34.9544 27.36C34.3944 27.36 33.8077 27.5333 33.1944 27.88C32.581 28.2 32.1544 28.6 31.9144 29.08C31.5144 29.8533 31.2344 30.6933 31.0744 31.6C30.781 33.2 30.6344 34.8667 30.6344 36.6C30.6344 37.4267 30.6477 38.0667 30.6744 38.52C30.6744 38.6267 30.6744 38.84 30.6744 39.16C30.701 39.4533 30.6744 39.7333 30.5944 40C30.541 40.24 30.4344 40.4667 30.2744 40.68C30.141 40.8133 29.9277 40.92 29.6344 41C29.3677 41.1067 29.1144 41.16 28.8744 41.16C28.501 41.16 28.0344 41 27.4744 40.68C26.9144 40.36 26.5944 40 26.5144 39.6L26.4744 38.92C26.4744 38.68 26.501 38.4 26.5544 38.08C26.8744 36.2133 27.0344 34.5867 27.0344 33.2C27.0344 32.5867 27.021 32.1067 26.9944 31.76L26.9544 29.88C26.9544 29.24 26.7944 28.6267 26.4744 28.04C26.1544 27.4267 25.781 27.12 25.3544 27.12C25.221 27.12 25.0344 27.1733 24.7944 27.28C24.5544 27.36 24.3544 27.4 24.1944 27.4C23.9277 27.4 23.6344 27.2667 23.3144 27C23.021 26.7333 22.8744 26.4533 22.8744 26.16C22.8744 25.6 23.061 25.1467 23.4344 24.8C23.8344 24.48 24.221 24.2267 24.5944 24.04C24.9944 23.8533 25.4477 23.76 25.9544 23.76C26.381 23.76 26.7277 23.8 26.9944 23.88C27.261 23.96 27.621 24.1333 28.0744 24.4C28.3144 24.5333 28.5944 24.8267 28.9144 25.28C29.2344 25.7333 29.501 26.3733 29.7144 27.2C30.4077 25.92 31.261 25.0267 32.2744 24.52C33.3144 23.9867 34.6344 23.72 36.2344 23.72C36.8477 23.72 37.501 23.92 38.1944 24.32C38.9144 24.72 39.5277 25.1867 40.0344 25.72C40.5144 26.3067 40.9144 27.04 41.2344 27.92C41.5544 28.7733 41.7144 29.5467 41.7144 30.24C41.7144 30.64 41.6877 31.2933 41.6344 32.2C41.5544 32.92 41.5144 33.68 41.5144 34.48C41.5144 36.3467 41.8744 37.4933 42.5944 37.92Z" fill="white"/>
</svg>
