<svg width="81" height="43" viewBox="0 0 81 43" fill="none" xmlns="http://www.w3.org/2000/svg">
<path d="M38.834 0.855137C39.45 0.855137 40.198 1.27314 41.078 2.10914C42.002 2.90114 42.464 3.58314 42.464 4.15514C42.464 6.83914 42.376 10.5131 42.2 15.1771C42.156 16.3211 42.112 17.7071 42.068 19.3351C42.024 20.9191 42.002 22.7671 42.002 24.8791C42.002 31.5671 42.398 36.4951 43.19 39.6631C43.146 40.7191 42.728 41.4891 41.936 41.9731C41.144 42.4131 40.352 42.6331 39.56 42.6331C37.8 42.6331 36.634 42.0171 36.062 40.7851C35.534 39.5531 35.27 37.7931 35.27 35.5051C35.27 27.0131 35.358 19.2031 35.534 12.0751C30.474 17.7071 26.536 22.4371 23.72 26.2651C23.72 26.2651 23.324 26.5291 22.532 27.0571C21.784 27.7171 21.168 28.0471 20.684 28.0471C19.54 28.0471 18.594 27.7611 17.846 27.1891C17.098 26.6171 16.372 25.7811 15.668 24.6811L12.5 20.1931C10.3 17.1131 8.694 14.7811 7.682 13.1971C7.682 17.2451 7.88 22.7451 8.276 29.6971C8.584 33.7011 8.738 36.7151 8.738 38.7391C8.738 39.7951 8.474 40.6971 7.946 41.4451C7.418 42.1491 6.582 42.5011 5.438 42.5011C4.294 42.5011 3.348 42.2811 2.6 41.8411C1.896 41.4011 1.522 40.7411 1.478 39.8611C1.522 39.1131 1.544 37.8811 1.544 36.1651C1.544 32.7331 1.434 28.5531 1.214 23.6251L1.082 20.0611L0.95 15.4411C0.906 14.0771 0.862 12.4931 0.818 10.6891C0.774 8.84114 0.752 6.83914 0.752 4.68314C0.752 2.04314 2.182 0.723138 5.042 0.723138C5.922 0.723138 6.802 0.943138 7.682 1.38314C8.606 1.82314 9.288 2.46114 9.728 3.29714C10.08 4.83714 11.378 7.38914 13.622 10.9531C15.866 14.5171 18.066 17.8611 20.222 20.9851C22.158 18.5211 23.742 16.6731 24.974 15.4411C27.086 13.2851 28.824 11.2831 30.188 9.43514C31.596 7.58714 33.114 5.36514 34.742 2.76914C35.138 2.24114 35.71 1.80114 36.458 1.44914C37.206 1.05314 37.998 0.855137 38.834 0.855137ZM56.0028 0.657135C56.8388 0.657135 57.5868 0.877136 58.2468 1.31714C58.9508 1.75714 59.3688 2.52714 59.5008 3.62714C60.0288 7.10314 60.3588 10.5791 60.4908 14.0551C60.6668 17.4871 60.7548 21.3811 60.7548 25.7371C60.7548 27.5851 60.6008 30.9511 60.2928 35.8351C62.2288 36.0111 63.7248 36.0991 64.7808 36.0991C65.5288 36.0991 67.2228 35.9891 69.8628 35.7691C71.4028 35.5491 72.7448 35.4391 73.8888 35.4391C74.9448 35.4391 75.9128 35.5491 76.7928 35.7691C77.6728 35.9451 78.5748 36.2531 79.4988 36.6931C80.4228 37.2211 80.8848 38.0351 80.8848 39.1351C80.8848 40.0151 80.5988 40.8071 80.0268 41.5111C79.4988 42.2151 78.8608 42.5671 78.1128 42.5671C77.5848 42.5671 76.7488 42.4791 75.6048 42.3031C73.5368 41.9951 71.5568 41.8411 69.6648 41.8411C69.0488 41.8411 68.3448 41.8851 67.5528 41.9731C66.8048 42.0171 66.2548 42.0391 65.9028 42.0391C64.8468 42.1711 63.7908 42.2371 62.7348 42.2371C60.5788 42.2371 58.6428 42.1271 56.9268 41.9071C56.0468 41.8191 55.1668 41.4891 54.2868 40.9171C53.4068 40.3011 52.9668 39.4211 52.9668 38.2771C52.9668 37.6171 53.0548 35.9231 53.2308 33.1951C53.5388 28.6631 53.6928 25.2091 53.6928 22.8331C53.6928 20.9851 53.6048 19.0491 53.4288 17.0251C53.2528 15.0011 53.1428 13.7251 53.0988 13.1971C52.7028 9.45714 52.5048 6.37714 52.5048 3.95714C52.5048 2.81314 52.7688 1.97714 53.2968 1.44914C53.8688 0.921136 54.7708 0.657135 56.0028 0.657135Z" fill="#946441" fill-opacity="0.49"/>
</svg>
